<svg width="24" height="22" viewBox="0 0 24 22" fill="none" xmlns="http://www.w3.org/2000/svg">
<path fill-rule="evenodd" clip-rule="evenodd" d="M21.8995 0L2.10055 19.799L3.51476 21.2132L7.58439 17.1436C8.96768 17.6334 10.4534 17.8995 12 17.8995C17.2339 17.8995 21.7706 14.8517 24 10.3995C22.9533 8.30921 21.398 6.52844 19.5006 5.22734L23.3137 1.41421L21.8995 0ZM17.7353 6.9927L17.8765 6.85143C17.89 6.85991 17.9034 6.86842 17.9168 6.87697C19.3269 7.77636 20.5217 8.98105 21.4193 10.3995C20.5218 11.818 19.3268 13.0227 17.9168 13.9221C16.1451 15.0522 14.099 15.6495 12 15.6495C11.1156 15.6495 10.2407 15.5435 9.39169 15.3363L10.2334 14.4946C10.7919 14.6664 11.3851 14.7589 12 14.7589C15.3136 14.7589 18 12.0726 18 8.75891C18 8.1441 17.9072 7.55108 17.7353 6.9927Z" fill="#DDDFE0"/>
<path d="M2.58084 10.3995C3.46467 11.7963 4.63681 12.9859 6.01882 13.8807L4.39799 15.5015C2.54661 14.2069 1.028 12.4525 0 10.3995C2.22933 5.9474 6.76598 2.89954 12 2.89954C13.4993 2.89954 14.9413 3.14963 16.2883 3.61119L11.9975 7.90203C11.9417 6.709 10.9568 5.75891 9.75 5.75891C8.50734 5.75891 7.5 6.76625 7.5 8.00891C7.5 9.21574 8.45009 10.2006 9.64312 10.2564L7.34937 12.5502C6.50588 11.5167 6 10.1969 6 8.75891C6 8.03765 6.12773 7.34638 6.36112 6.70588C6.2678 6.76161 6.17503 6.81838 6.0832 6.87697C4.6732 7.77632 3.47831 8.981 2.58084 10.3995Z" fill="#DDDFE0"/>
</svg>
